<svg width="24" height="24" viewBox="0 0 24 24" fill="none" xmlns="http://www.w3.org/2000/svg">
<path d="M11.3929 0.0230454C11.3929 0.0230454 10.86 0.0499323 10.2046 0.240701C9.14129 0.549259 8.28129 1.32386 7.85651 2.33147L7.74705 2.5901C7.60502 3.00876 8.01548 3.40694 8.43766 3.25458C10.1629 2.63363 13.6862 1.89232 16.966 4.45041C17.31 4.71799 17.8247 4.56436 17.9615 4.15465C18.0827 3.78976 18.1152 3.29427 17.8585 2.67716C17.3074 1.34946 15.0153 0 12.0679 0C11.8464 0 11.6209 0.0076815 11.3929 0.0230454ZM1.84565 6.69097C2.82813 11.3565 9.7042 14.3716 15.7607 17.3074C19.5056 19.1216 19.2775 21.352 18.5583 22.7898C18.3055 23.2929 18.8762 23.8102 19.37 23.5298C19.9056 23.2264 20.4555 22.8115 20.8777 22.2546C22.0647 20.6862 22.8009 15.6584 12.4458 11.0748C4.82827 7.70115 5.5736 4.71415 6.388 3.45944C6.48181 3.31732 6.49615 3.1368 6.42578 2.98188C6.35672 2.82696 6.21078 2.71685 6.04139 2.68996C6.04139 2.68996 5.7873 2.65667 5.4016 2.65667C4.05037 2.65667 1.08077 3.05869 1.84565 6.69097ZM19.6463 4.45297C18.9844 7.03154 16.5803 8.92898 15.315 9.77272C14.9788 9.99677 15.0179 10.4935 15.3815 10.6702C16.7848 11.3475 17.5015 11.7393 17.8494 11.9429C18.0357 12.0543 18.2729 12.0402 18.4462 11.9096C20.3734 10.4615 22.5312 8.08013 22.4739 6.18781C22.4335 4.88316 21.2842 4.26476 20.4972 3.99461C20.4281 3.97029 20.3564 3.95748 20.2835 3.95748C19.9903 3.95748 19.7232 4.15465 19.6463 4.45297ZM9.16865 4.57076C7.75096 5.24933 8.63832 6.38626 9.05138 6.81389C9.83189 7.62049 10.8873 8.25297 11.6626 8.65371C12.3376 9.00452 13.1546 8.96611 13.7931 8.55129C14.5749 8.04172 15.3893 7.3529 15.9509 6.84974C16.3379 6.50277 16.2806 5.89205 15.8401 5.61422C14.0094 4.45297 12.52 4.08423 11.3525 4.08423C10.4261 4.08423 9.70159 4.31597 9.16865 4.57076ZM0.335437 10.4782C-0.292622 11.9723 -0.617075 15.2205 4.87388 19.58C7.22193 21.4442 10.2476 22.8346 13.5559 23.8678C15.3658 24.4337 17.2135 23.1124 17.2135 21.2457C17.2135 20.338 16.6598 19.5185 15.8089 19.1665C6.56651 15.3306 2.75516 11.7867 1.45604 10.3015C1.33095 10.1568 1.14722 10.0736 0.953072 10.0749C0.698981 10.0749 0.446194 10.2157 0.335437 10.4782ZM22.5442 10.587C21.8836 11.3987 20.9689 12.149 20.2874 12.656C20.0724 12.816 19.9408 13.0619 19.9304 13.3269C19.9199 13.5919 20.0307 13.8467 20.2327 14.0221C21.3441 14.9964 21.9852 15.9055 22.354 16.6327C22.5924 17.1039 23.2974 17.0488 23.4394 16.5405C24.1417 14.026 24.0675 12.1336 23.842 10.9071C23.773 10.5332 23.4459 10.3169 23.1136 10.3169C22.9052 10.3169 22.6954 10.4014 22.5442 10.587Z" fill="url(#paint0_linear_502_155)"/>
<defs>
<linearGradient id="paint0_linear_502_155" x1="0" y1="0" x2="24" y2="0" gradientUnits="userSpaceOnUse">
<stop stop-color="#FF2922"/>
<stop offset="1" stop-color="#FE255B"/>
</linearGradient>
</defs>
</svg>
